PathFileType	4	(X/Y/Z)	C:\Documents and Settings\rtobon\Desktop\NewMocap\New\NoT\ActorF_TPose.trc
DataRate	CameraRate	NumFrames	NumMarkers	Units	OrigDataRate	OrigDataStartFrame	OrigNumFrames
120.00	120.00	       5	49	mm	120.00	66	       260
Frame#	Time	Root			LtFtHip			LtBkHip			RtFtHip			RtBkHip			Spine1			Spine2			Spine3			SpineOffsetLow			SpineOffsetHigh			LtCtChest			RtCtChest			LtChest			RtChest			LtShoulder			LtBicep			LtElbow			LtForeArm			LtWrist			LtPinky			LtThumb			LtMiddFing			RtShoulder			RtBicep			RtElbow			RtForeArm			RtWrist			RtPinky			RtThumb			RtMiddFing			LtThigh			LtKnee			LtCalf			LtAnkle			LtHeel			LtBall			LtToe			RtThigh			RtKnee			RtCalf			RtAnkle			RtHeel			RtBall			RtToe			TopHead			LfFtHead			LtBkHead			RtFtHead			RtBkHead			
		X1	Y1	Z1	X2	Y2	Z2	X3	Y3	Z3	X4	Y4	Z4	X5	Y5	Z5	X6	Y6	Z6	X7	Y7	Z7	X8	Y8	Z8	X9	Y9	Z9	X10	Y10	Z10	X11	Y11	Z11	X12	Y12	Z12	X13	Y13	Z13	X14	Y14	Z14	X15	Y15	Z15	X16	Y16	Z16	X17	Y17	Z17	X18	Y18	Z18	X19	Y19	Z19	X20	Y20	Z20	X21	Y21	Z21	X22	Y22	Z22	X23	Y23	Z23	X24	Y24	Z24	X25	Y25	Z25	X26	Y26	Z26	X27	Y27	Z27	X28	Y28	Z28	X29	Y29	Z29	X30	Y30	Z30	X31	Y31	Z31	X32	Y32	Z32	X33	Y33	Z33	X34	Y34	Z34	X35	Y35	Z35	X36	Y36	Z36	X37	Y37	Z37	X38	Y38	Z38	X39	Y39	Z39	X40	Y40	Z40	X41	Y41	Z41	X42	Y42	Z42	X43	Y43	Z43	X44	Y44	Z44	X45	Y45	Z45	X46	Y46	Z46	X47	Y47	Z47	X48	Y48	Z48	X49	Y49	Z49	

66	0.542	13.92205	1103.04980	1288.58655	106.37321	1010.33923	1564.87256	108.55731	1069.96777	1288.72693	-163.03748	1031.66309	1533.13525	-113.46532	1070.38281	1271.95667	18.28564	1277.35156	1280.58252	20.28354	1411.86853	1285.95789	11.05470	1530.59534	1340.09546	-66.94305	1198.24207	1280.72937	148.78720	1355.61670	1291.00745	19.98117	1377.13696	1596.01501	-29.01827	1402.55298	1584.03162	102.60584	1450.98254	1570.53430	-99.64083	1451.86475	1560.18384	168.67805	1543.55359	1404.63586	339.90918	1519.88940	1442.84021	492.76389	1498.25195	1414.17627	600.47504	1491.46118	1465.98999	735.97003	1474.10010	1489.22058	792.56378	1422.91016	1454.38245	761.11542	1452.42175	1563.62317	793.75549	1472.01843	1495.73633	-163.15399	1555.82776	1434.39270	-341.39709	1510.38464	1412.44666	-444.21783	1496.03333	1397.71545	-593.99274	1484.26025	1440.65027	-709.72827	1471.06934	1453.01160	-776.35089	1424.73865	1430.96582	-753.40985	1468.30859	1528.99768	-783.23071	1475.31030	1464.25037	212.37489	738.53455	1470.04724	201.98689	578.56885	1419.08411	224.51138	338.04059	1349.98108	200.46443	147.89931	1340.64148	132.99258	51.54859	1270.10547	222.38396	54.83998	1444.30249	173.24211	46.37641	1542.81348	-256.69635	777.64972	1457.31372	-249.73306	552.32703	1431.50977	-271.06158	403.89658	1373.95972	-248.10565	152.10081	1351.03918	-173.89496	52.33795	1263.61621	-277.15140	53.30801	1437.67615	-222.48680	54.38257	1529.28748	-12.09083	1780.86206	1470.42822	53.47215	1713.19763	1599.41992	75.97621	1656.61938	1421.39624	-68.40465	1701.20520	1585.28088	-72.39783	1638.66382	1411.27808	
67	0.550	13.92205	1103.04980	1288.58655	106.22360	1010.42798	1565.21045	108.49229	1070.04407	1288.79675	-163.00314	1031.63318	1533.16150	-113.47887	1070.37341	1272.13464	18.39781	1277.40869	1280.64734	20.14745	1411.78259	1286.20227	10.71010	1530.66455	1340.16956	-66.72422	1197.97510	1280.95093	148.78720	1355.61670	1291.00745	19.96178	1377.11560	1596.04688	-29.12615	1402.39404	1583.95837	102.60584	1450.98254	1570.53430	-99.71110	1451.77234	1560.13098	168.41399	1543.43213	1404.61292	339.86685	1519.84290	1442.86401	492.64371	1498.32703	1414.17505	600.43683	1491.47986	1465.95605	735.87164	1473.97083	1489.14087	792.54401	1422.77759	1454.57153	761.09698	1452.28577	1563.66809	793.65814	1471.76880	1495.60107	-163.26999	1555.78870	1434.56384	-341.42603	1510.32104	1412.49634	-444.20349	1495.95496	1397.74194	-594.10547	1484.13733	1440.71277	-709.78644	1471.01892	1453.09546	-776.27374	1424.66174	1430.69812	-753.43671	1468.23462	1529.07239	-783.23511	1475.18042	1464.19189	212.32472	738.54816	1470.16003	201.95665	578.52557	1419.12390	224.46257	338.04123	1349.99780	200.59419	147.92580	1340.82019	132.84358	51.64933	1270.13672	222.38396	54.83998	1444.30249	173.24393	46.41797	1542.75269	-256.70294	777.64935	1457.53491	-249.65465	552.27313	1431.62134	-270.90790	403.94113	1374.12756	-248.10565	152.10081	1351.03918	-173.80113	52.35131	1263.66260	-277.11108	53.25692	1437.70691	-222.43063	54.35145	1529.22107	-12.14391	1780.86218	1470.36682	53.39318	1713.24109	1599.45227	75.73899	1656.45984	1421.31018	-68.50668	1701.25073	1585.25000	-72.40022	1638.70032	1411.24231	
68	0.558	13.92205	1103.04980	1288.58655	106.27029	1010.47461	1565.36487	108.46626	1069.93079	1288.96497	-162.97238	1031.69141	1533.27649	-113.52940	1070.34839	1272.37976	18.39781	1277.40869	1280.64734	20.14745	1411.78259	1286.20227	10.73917	1530.54785	1340.40808	-66.80162	1198.05847	1281.00854	148.78720	1355.61670	1291.00745	19.93579	1377.06335	1596.05615	-29.20333	1402.40112	1584.05127	102.43178	1450.89807	1570.57385	-99.85006	1451.69788	1560.17261	168.23669	1543.42932	1404.82495	339.80789	1519.89111	1442.87048	492.50739	1498.34570	1414.33740	600.49768	1491.41455	1466.01563	735.76392	1473.75647	1489.02283	792.37201	1422.66260	1454.68323	761.16559	1452.22009	1563.67395	793.55334	1471.46802	1495.34253	-163.33598	1555.86401	1434.61011	-341.50543	1510.25073	1412.49988	-444.19778	1495.78870	1397.93188	-594.11975	1483.95020	1440.41504	-709.92987	1470.93359	1453.01453	-775.98163	1424.25903	1430.80396	-753.42487	1467.99780	1529.13416	-783.22455	1475.08240	1464.16724	212.32472	738.54816	1470.16003	201.97195	578.34332	1419.25122	224.35605	337.90005	1349.84766	200.93117	147.91693	1340.78345	132.94762	51.38722	1270.15881	222.44534	54.84000	1444.26892	173.24211	46.37641	1542.81348	-256.65317	777.64856	1457.57520	-249.64679	552.27106	1431.84229	-271.03860	403.94717	1374.20642	-248.10565	152.10081	1351.03918	-173.80113	52.35131	1263.66260	-277.15140	53.30801	1437.67615	-222.53099	54.39171	1529.11658	-12.07043	1780.95044	1470.31897	53.30790	1713.23035	1599.50928	75.75101	1656.33569	1421.50012	-68.54995	1701.36719	1585.19043	-72.53850	1638.57678	1411.18628	
69	0.567	13.94319	1103.07593	1288.89392	106.34024	1010.42413	1565.47217	108.65652	1070.05725	1289.17224	-162.97238	1031.69141	1533.27649	-113.52940	1070.34839	1272.37976	18.39491	1277.43298	1280.79272	19.78693	1411.86682	1286.37305	10.68155	1530.52820	1340.48535	-66.82993	1198.01160	1281.35413	148.74049	1355.43323	1291.32446	19.89300	1377.00232	1596.09094	-29.28380	1402.38538	1584.11450	102.43178	1450.89807	1570.57385	-99.91224	1451.53113	1560.29346	168.26376	1543.47083	1405.07532	339.78412	1519.85217	1442.98804	492.47955	1498.35583	1414.31946	600.46796	1491.37866	1466.07031	735.84906	1473.52246	1489.03357	791.71686	1422.47595	1454.39209	761.25159	1452.07141	1563.91687	793.56549	1471.40234	1495.35010	-163.34464	1555.60339	1434.68335	-341.61932	1510.12744	1412.61816	-444.25327	1495.76526	1397.96985	-594.17822	1483.84326	1440.54919	-709.92731	1470.64563	1452.85120	-776.70465	1424.04675	1430.68884	-753.41010	1467.88696	1529.12268	-783.40417	1474.95007	1464.17981	212.21603	738.47137	1470.20862	201.97195	578.34332	1419.25122	224.46257	338.04123	1349.99780	200.59419	147.92580	1340.82019	132.88727	51.52779	1270.03882	222.38396	54.83998	1444.30249	173.24393	46.41797	1542.75269	-256.65317	777.64856	1457.57520	-249.74509	552.16827	1431.84729	-271.03391	403.89288	1374.11499	-248.31198	152.17548	1350.92273	-173.80113	52.35131	1263.66260	-277.15140	53.30801	1437.67615	-222.42146	54.31959	1529.27283	-12.10284	1780.94971	1470.28223	53.38280	1713.28589	1599.40735	75.55860	1656.08435	1421.45166	-68.50310	1701.42798	1585.19116	-72.39815	1638.53955	1411.22021	
70	0.575	14.08505	1102.90308	1288.92493	106.32397	1010.37061	1565.55737	108.71902	1070.10107	1289.30933	-162.98601	1031.68701	1533.41797	-113.52940	1070.34839	1272.37976	18.28274	1277.37585	1280.72791	19.81344	1411.77490	1286.34790	10.61132	1530.52588	1340.66016	-66.75253	1197.92822	1281.29663	148.89572	1355.47791	1291.40149	19.86403	1376.85010	1596.08301	-29.39368	1402.38721	1584.17334	102.41660	1450.82227	1570.61353	-99.90620	1451.41553	1560.36475	167.99254	1543.40247	1405.18982	339.68155	1519.92493	1443.21423	492.42252	1498.26843	1414.55017	600.47540	1491.24536	1466.16882	735.86255	1473.33557	1489.09814	791.66827	1422.43054	1454.49402	761.25830	1451.97278	1564.05762	793.61371	1470.99255	1495.03247	-163.33701	1555.44312	1434.58118	-341.67731	1510.06250	1412.68420	-444.32632	1495.67651	1398.07153	-594.26385	1483.80530	1440.58020	-710.04144	1470.45935	1453.05005	-776.48358	1423.72095	1430.61401	-753.48370	1467.74744	1529.04297	-783.47760	1474.72156	1464.11230	212.21603	738.47137	1470.20862	201.97139	578.29205	1419.31213	224.46257	338.04123	1349.99780	200.59419	147.92580	1340.82019	132.88727	51.52779	1270.03882	222.38396	54.83998	1444.30249	173.24211	46.37641	1542.81348	-256.65317	777.64856	1457.57520	-249.69502	552.26868	1432.05322	-271.01773	403.72522	1374.28479	-248.12633	151.96037	1350.90161	-173.80113	52.35131	1263.66260	-277.11108	53.25692	1437.70691	-222.28099	54.30212	1529.31616	-12.07166	1780.94592	1470.28918	53.32812	1713.43164	1599.35669	75.69907	1656.12781	1421.54919	-68.52010	1701.47803	1585.14453	-72.42162	1638.66467	1411.27393	
